{
  "accessors": [
    {
      "bufferView": 2,
      "componentType": 5126,
      "count": 1045,
      "max": [
        0.0841558650135994,
        0.12679047882556915,
        0.7523106932640076
      ],
      "min": [
        -0.027686389163136482,
        -0.01880493015050888,
        -0.7524324655532837
      ],
      "type": "VEC3"
    },
    {
      "bufferView": 2,
      "byteOffset": 12540,
      "componentType": 5126,
      "count": 1045,
      "max": [
        1.0,
        1.0,
        1.0
      ],
      "min": [
        -1.0,
        -0.9999991655349731,
        -1.0
      ],
      "type": "VEC3"
    },
    {
      "bufferView": 1,
      "componentType": 5126,
      "count": 1045,
      "max": [
        1.0,
        1.0
      ],
      "min": [
        0.0,
        0.0
      ],
      "type": "VEC2"
    },
    {
      "bufferView": 0,
      "componentType": 5125,
      "count": 4866,
      "type": "SCALAR"
    },
    {
      "bufferView": 2,
      "byteOffset": 25080,
      "componentType": 5126,
      "count": 5959,
      "max": [
        1.1108787059783936,
        0.18626248836517334,
        0.5898366570472717
      ],
      "min": [
        0.06829231977462769,
        0.020610718056559563,
        -0.6422206163406372
      ],
      "type": "VEC3"
    },
    {
      "bufferView": 2,
      "byteOffset": 96588,
      "componentType": 5126,
      "count": 5959,
      "max": [
        1.0,
        1.0,
        1.0
      ],
      "min": [
        -0.9997403621673584,
        -1.0,
        -1.0
      ],
      "type": "VEC3"
    },
    {
      "bufferView": 1,
      "byteOffset": 8360,
      "componentType": 5126,
      "count": 5959,
      "max": [
        1.0,
        1.0
      ],
      "min": [
        0.0,
        0.0
      ],
      "type": "VEC2"
    },
    {
      "bufferView": 0,
      "byteOffset": 19464,
      "componentType": 5125,
      "count": 27816,
      "type": "SCALAR"
    },
    {
      "bufferView": 2,
      "byteOffset": 168096,
      "componentType": 5126,
      "count": 136,
      "max": [
        0.49804437160491943,
        0.12922663986682892,
        0.5730789303779602
      ],
      "min": [
        0.12440125644207001,
        0.07769196480512619,
        -0.5737918019294739
      ],
      "type": "VEC3"
    },
    {
      "bufferView": 2,
      "byteOffset": 169728,
      "componentType": 5126,
      "count": 136,
      "max": [
        0.0649457797408104,
        1.0,
        1.0
      ],
      "min": [
        -0.007110868580639362,
        -1.0,
        -1.0
      ],
      "type": "VEC3"
    },
    {
      "bufferView": 1,
      "byteOffset": 56032,
      "componentType": 5126,
      "count": 136,
      "max": [
        0.9999338984489441,
        0.9959180951118469
      ],
      "min": [
        6.606279202969745e-05,
        6.606279202969745e-05
      ],
      "type": "VEC2"
    },
    {
      "bufferView": 0,
      "byteOffset": 130728,
      "componentType": 5125,
      "count": 384,
      "type": "SCALAR"
    },
    {
      "bufferView": 2,
      "byteOffset": 171360,
      "componentType": 5126,
      "count": 12,
      "max": [
        -0.3487359285354614,
        0.9054239988327026,
        1.0
      ],
      "min": [
        -0.8624540567398071,
        -0.9390618801116943,
        -1.0
      ],
      "type": "VEC3"
    },
    {
      "bufferView": 2,
      "byteOffset": 171504,
      "componentType": 5126,
      "count": 12,
      "max": [
        1.0,
        1.0,
        0.0
      ],
      "min": [
        0.0,
        0.0,
        0.0
      ],
      "type": "VEC3"
    },
    {
      "bufferView": 3,
      "componentType": 5126,
      "count": 12,
      "max": [
        1.0,
        5.9084996451019833e-08,
        1.160377394171519e-07,
        1.0
      ],
      "min": [
        0.0,
        -1.0,
        -1.0,
        1.0
      ],
      "type": "VEC4"
    },
    {
      "bufferView": 1,
      "byteOffset": 57120,
      "componentType": 5126,
      "count": 12,
      "max": [
        0.9966464042663574,
        0.9999834299087524
      ],
      "min": [
        -9.102234616875648e-05,
        -0.003924965858459473
      ],
      "type": "VEC2"
    },
    {
      "bufferView": 1,
      "byteOffset": 57216,
      "componentType": 5126,
      "count": 12,
      "max": [
        0.9966464042663574,
        0.9999834299087524
      ],
      "min": [
        -9.102234616875648e-05,
        -0.003924965858459473
      ],
      "type": "VEC2"
    },
    {
      "bufferView": 0,
      "byteOffset": 132264,
      "componentType": 5125,
      "count": 18,
      "type": "SCALAR"
    },
    {
      "bufferView": 2,
      "byteOffset": 171648,
      "componentType": 5126,
      "count": 44,
      "max": [
        -0.3487359285354614,
        0.9054239988327026,
        1.0
      ],
      "min": [
        -0.9362583160400391,
        -0.9390618801116943,
        -1.0
      ],
      "type": "VEC3"
    },
    {
      "bufferView": 2,
      "byteOffset": 172176,
      "componentType": 5126,
      "count": 44,
      "max": [
        0.0,
        1.0,
        1.0
      ],
      "min": [
        -1.0,
        -1.0,
        -1.0
      ],
      "type": "VEC3"
    },
    {
      "bufferView": 1,
      "byteOffset": 57312,
      "componentType": 5126,
      "count": 44,
      "max": [
        0.999945878982544,
        0.9999885559082031
      ],
      "min": [
        1.1501411790959537e-05,
        1.1501411790959537e-05
      ],
      "type": "VEC2"
    },
    {
      "bufferView": 0,
      "byteOffset": 132336,
      "componentType": 5125,
      "count": 66,
      "type": "SCALAR"
    }
  ],
  "asset": {
    "extras": {
      "author": "anybody (https://sketchfab.com/anybody)",
      "license": "CC-BY-4.0 (http://creativecommons.org/licenses/by/4.0/)",
      "source": "https://sketchfab.com/3d-models/kitchen-tools-417e3873fcb34f7ab9744506d7bcc838",
      "title": "Kitchen Tools"
    },
    "generator": "Sketchfab-12.68.0",
    "version": "2.0"
  },
  "bufferViews": [
    {
      "buffer": 0,
      "byteLength": 132600,
      "name": "floatBufferViews",
      "target": 34963
    },
    {
      "buffer": 0,
      "byteLength": 57664,
      "byteOffset": 132600,
      "byteStride": 8,
      "name": "floatBufferViews",
      "target": 34962
    },
    {
      "buffer": 0,
      "byteLength": 172704,
      "byteOffset": 190264,
      "byteStride": 12,
      "name": "floatBufferViews",
      "target": 34962
    },
    {
      "buffer": 0,
      "byteLength": 192,
      "byteOffset": 362968,
      "byteStride": 16,
      "name": "floatBufferViews",
      "target": 34962
    }
  ],
  "buffers": [
    {
      "byteLength": 363160,
      "uri": "scene.bin"
    }
  ],
  "images": [
    {
      "uri": "textures/kitchen_tools_wood_baseColor.png"
    },
    {
      "uri": "textures/Material_baseColor.png"
    },
    {
      "uri": "textures/Material_normal.png"
    }
  ],
  "materials": [
    {
      "doubleSided": true,
      "name": "kitchen_tools_alu",
      "pbrMetallicRoughness": {
        "baseColorFactor": [
          0.8,
          0.8,
          0.8,
          1.0
        ],
        "roughnessFactor": 0.366667
      }
    },
    {
      "doubleSided": true,
      "name": "kitchen_tools_chrome",
      "pbrMetallicRoughness": {
        "baseColorFactor": [
          0.8,
          0.8,
          0.8,
          1.0
        ],
        "roughnessFactor": 0.1
      }
    },
    {
      "doubleSided": true,
      "name": "kitchen_tools_wood",
      "pbrMetallicRoughness": {
        "baseColorTexture": {
          "index": 0
        },
        "metallicFactor": 0.0,
        "roughnessFactor": 0.45
      }
    },
    {
      "doubleSided": true,
      "name": "Material",
      "normalTexture": {
        "index": 2
      },
      "pbrMetallicRoughness": {
        "baseColorTexture": {
          "index": 1
        },
        "metallicFactor": 0.0,
        "roughnessFactor": 0.2
      }
    },
    {
      "doubleSided": true,
      "name": "Material.001",
      "pbrMetallicRoughness": {
        "baseColorFactor": [
          0.259798,
          0.259798,
          0.259798,
          1.0
        ],
        "metallicFactor": 0.0,
        "roughnessFactor": 0.5
      }
    }
  ],
  "meshes": [
    {
      "name": "Object_0",
      "primitives": [
        {
          "attributes": {
            "NORMAL": 1,
            "POSITION": 0,
            "TEXCOORD_0": 2
          },
          "indices": 3,
          "material": 0,
          "mode": 4
        }
      ]
    },
    {
      "name": "Object_1",
      "primitives": [
        {
          "attributes": {
            "NORMAL": 5,
            "POSITION": 4,
            "TEXCOORD_0": 6
          },
          "indices": 7,
          "material": 1,
          "mode": 4
        }
      ]
    },
    {
      "name": "Object_2",
      "primitives": [
        {
          "attributes": {
            "NORMAL": 9,
            "POSITION": 8,
            "TEXCOORD_0": 10
          },
          "indices": 11,
          "material": 2,
          "mode": 4
        }
      ]
    },
    {
      "name": "Object_3",
      "primitives": [
        {
          "attributes": {
            "NORMAL": 13,
            "POSITION": 12,
            "TANGENT": 14,
            "TEXCOORD_0": 15,
            "TEXCOORD_1": 16
          },
          "indices": 17,
          "material": 3,
          "mode": 4
        }
      ]
    },
    {
      "name": "Object_4",
      "primitives": [
        {
          "attributes": {
            "NORMAL": 19,
            "POSITION": 18,
            "TEXCOORD_0": 20
          },
          "indices": 21,
          "material": 4,
          "mode": 4
        }
      ]
    }
  ],
  "nodes": [
    {
      "children": [
        1
      ],
      "matrix": [
        0.5,
        0.0,
        0.0,
        0.0,
        0.0,
        1.1102230246251565e-16,
        -0.5,
        0.0,
        0.0,
        0.5,
        1.1102230246251565e-16,
        0.0,
        0.0,
        0.0,
        0.0,
        1.0
      ],
      "name": "Sketchfab_model"
    },
    {
      "children": [
        2
      ],
      "name": "root"
    },
    {
      "children": [
        3,
        7
      ],
      "matrix": [
        1.0,
        0.0,
        0.0,
        0.0,
        0.0,
        2.220446049250313e-16,
        1.0,
        0.0,
        0.0,
        -1.0,
        2.220446049250313e-16,
        0.0,
        0.0,
        0.0,
        0.0,
        1.0
      ],
      "name": "GLTF_SceneRootNode"
    },
    {
      "children": [
        4,
        5,
        6
      ],
      "matrix": [
        8.429369480200677e-08,
        -0.9999999999999966,
        -0.0,
        0.0,
        0.9999999999999966,
        8.429369480200677e-08,
        0.0,
        0.0,
        0.0,
        0.0,
        1.0,
        0.0,
        0.0,
        1.6156258583068848,
        0.0,
        1.0
      ],
      "name": "kitchen tools_0"
    },
    {
      "mesh": 0,
      "name": "Object_4"
    },
    {
      "mesh": 1,
      "name": "Object_5"
    },
    {
      "mesh": 2,
      "name": "Object_6"
    },
    {
      "children": [
        8,
        9
      ],
      "matrix": [
        1.0,
        0.0,
        0.0,
        0.0,
        0.0,
        1.0,
        0.0,
        0.0,
        0.0,
        0.0,
        1.0,
        0.0,
        0.8549456000328064,
        1.005027174949646,
        0.0,
        1.0
      ],
      "name": "Wall_1"
    },
    {
      "mesh": 3,
      "name": "Object_8"
    },
    {
      "mesh": 4,
      "name": "Object_9"
    }
  ],
  "samplers": [
    {
      "magFilter": 9729,
      "minFilter": 9987,
      "wrapS": 10497,
      "wrapT": 10497
    }
  ],
  "scene": 0,
  "scenes": [
    {
      "name": "Sketchfab_Scene",
      "nodes": [
        0
      ]
    }
  ],
  "textures": [
    {
      "sampler": 0,
      "source": 0
    },
    {
      "sampler": 0,
      "source": 1
    },
    {
      "sampler": 0,
      "source": 2
    }
  ]
}
